<svg width="152" height="50" viewBox="0 0 152 50" fill="none" xmlns="http://www.w3.org/2000/svg">
<path d="M0 0.648438H11.6627V29.1229H29.8593V38.4241H0V0.648438Z" fill="white"/>
<path d="M58.4057 0.648438H70.0419V23.152C70.0419 25.3811 69.6973 27.4908 68.9949 29.4811C68.3058 31.4581 67.2057 33.1963 65.7214 34.6824C64.2371 36.1685 62.6864 37.2167 61.0431 37.8138C58.7768 38.6497 56.0599 39.0743 52.8791 39.0743C51.0369 39.0743 49.0357 38.9416 46.8622 38.6895C44.6887 38.4241 42.873 37.9199 41.4152 37.1504C39.9573 36.3808 38.6188 35.306 37.4127 33.8996C36.2067 32.4931 35.3718 31.0468 34.9344 29.5475C34.2187 27.1458 33.8477 25.0096 33.8477 23.1653V0.648438H45.4839V23.696C45.4839 25.7526 46.0538 27.3714 47.1935 28.5258C48.3333 29.6801 49.9237 30.264 51.9382 30.264C53.9526 30.264 55.5165 29.6934 56.6563 28.5523C57.796 27.4112 58.3659 25.7924 58.3659 23.696V0.648438H58.4057Z" fill="white"/>
<path d="M75.7277 25.9268L86.8205 25.2369C87.0591 27.0414 87.5495 28.4213 88.2916 29.3634C89.4977 30.8893 91.2073 31.6589 93.4338 31.6589C95.1037 31.6589 96.376 31.2741 97.2772 30.4912C98.1785 29.7084 98.6291 28.8061 98.6291 27.7712C98.6291 26.7362 98.205 25.9136 97.3435 25.144C96.4821 24.3744 94.4941 23.6446 91.3664 22.9547C86.2507 21.8003 82.606 20.2744 80.4325 18.3637C78.2325 16.4531 77.1325 14.0249 77.1325 11.066C77.1325 9.1288 77.6891 7.28446 78.8157 5.55954C79.9422 3.83463 81.6253 2.48123 83.8916 1.48608C86.1446 0.504207 89.2459 0 93.1688 0C97.9929 0 101.664 0.902265 104.195 2.69353C106.727 4.48479 108.238 7.3508 108.715 11.265L97.7278 11.9152C97.4363 10.2168 96.8266 8.98284 95.8857 8.19999C94.9447 7.43042 93.6591 7.04563 92.0158 7.04563C90.6639 7.04563 89.6435 7.33754 88.9543 7.90809C88.2651 8.47864 87.9205 9.18187 87.9205 10.0045C87.9205 10.6016 88.1989 11.1456 88.7687 11.6233C89.3121 12.1275 90.6242 12.5919 92.6784 13.0165C97.7809 14.1178 101.425 15.2324 103.625 16.3602C105.826 17.488 107.429 18.8812 108.436 20.5531C109.444 22.2249 109.947 24.0825 109.947 26.1391C109.947 28.5673 109.271 30.7964 107.933 32.8398C106.594 34.8831 104.725 36.4356 102.327 37.4971C99.9279 38.5586 96.8929 39.076 93.235 39.076C86.8205 39.076 82.3675 37.842 79.9024 35.3608C77.4373 32.8796 76.0325 29.7482 75.7012 25.9268H75.7277Z" fill="white"/>
<path d="M115.885 0.648438H127.548V13.864H140.284V0.648438H152V38.4241H140.284V23.1387H127.548V38.4241H115.885V0.648438Z" fill="white"/>
<path d="M0 43.125H4.79763V44.4784H1.94821V45.5797H4.37353V46.8535H1.94821V49.4276H0V43.1383V43.125Z" fill="white"/>
<path d="M5.87109 49.3987V43.1094H9.10485C9.70124 43.1094 10.1651 43.1624 10.4832 43.2686C10.8013 43.3747 11.0531 43.5605 11.2519 43.8391C11.4507 44.1178 11.5434 44.4628 11.5434 44.8608C11.5434 45.2058 11.4639 45.511 11.3181 45.7631C11.1723 46.0152 10.9603 46.2275 10.7085 46.3734C10.5494 46.4796 10.3109 46.5592 10.0326 46.6256C10.2579 46.7052 10.4302 46.7848 10.5362 46.8511C10.6025 46.9042 10.7085 47.0103 10.841 47.1828C10.9735 47.3553 11.0663 47.488 11.1193 47.5676L12.0603 49.3854H9.87353L8.83979 47.4615C8.70726 47.2094 8.58798 47.0501 8.49521 46.9705C8.34943 46.8777 8.19039 46.8246 8.0181 46.8246H7.84581V49.3722H5.8976L5.87109 49.3987ZM7.8193 45.6702H8.641C8.73377 45.6702 8.90606 45.6437 9.15787 45.5906C9.2904 45.5641 9.39642 45.4977 9.47594 45.3916C9.55546 45.2854 9.59522 45.166 9.59522 45.0333C9.59522 44.8343 9.52895 44.6751 9.39642 44.5689C9.26389 44.4628 9.02534 44.4097 8.6675 44.4097H7.8193V45.6835V45.6702Z" fill="white"/>
<path d="M12.6562 43.1226H17.8515V44.4628H14.5912V45.4579H17.6129V46.745H14.5912V47.9789H17.9442V49.3987H12.6562V43.1094V43.1226Z" fill="white"/>
<path d="M18.6602 47.3279L20.5023 47.2085C20.5421 47.5137 20.6216 47.7392 20.7409 47.8985C20.9397 48.1506 21.2313 48.2833 21.6023 48.2833C21.8807 48.2833 22.0927 48.2169 22.2385 48.0842C22.3843 47.9515 22.4638 47.8056 22.4638 47.6331C22.4638 47.4606 22.3975 47.3279 22.2518 47.1952C22.106 47.0625 21.7746 46.9431 21.2578 46.837C20.4096 46.6512 19.7999 46.3859 19.4421 46.0674C19.071 45.749 18.8987 45.3509 18.8987 44.86C18.8987 44.5415 18.9915 44.2363 19.177 43.9444C19.3626 43.6525 19.6409 43.427 20.0252 43.2677C20.3963 43.1085 20.9132 43.0156 21.5758 43.0156C22.3843 43.0156 22.9939 43.1616 23.4048 43.4668C23.8289 43.7587 24.0807 44.2363 24.1602 44.8865L22.3313 44.9926C22.2783 44.714 22.1855 44.5017 22.0264 44.3823C21.8674 44.2496 21.6554 44.1833 21.377 44.1833C21.1517 44.1833 20.9795 44.2363 20.8734 44.3292C20.7541 44.4221 20.7011 44.5415 20.7011 44.6742C20.7011 44.7803 20.7541 44.86 20.8469 44.9396C20.9397 45.0192 21.1517 45.0988 21.4963 45.1651C22.3445 45.3509 22.9542 45.5367 23.3253 45.7224C23.6963 45.9082 23.9614 46.147 24.1204 46.4124C24.2927 46.691 24.3722 46.9962 24.3722 47.3412C24.3722 47.7392 24.2662 48.1108 24.0409 48.4558C23.8156 48.8007 23.5108 49.0528 23.1132 49.2253C22.7156 49.3978 22.212 49.4907 21.6023 49.4907C20.5288 49.4907 19.7999 49.2917 19.3891 48.8803C18.9782 48.469 18.7397 47.9515 18.6867 47.3147L18.6602 47.3279Z" fill="white"/>
<path d="M25.3398 43.125H27.2748V45.3276H29.3953V43.125H31.3435V49.4143H29.3953V46.8667H27.2748V49.4143H25.3398V43.125Z" fill="white"/>
<path d="M35.5723 43.125H37.5072V45.3276H39.6277V43.125H41.5759V49.4143H39.6277V46.8667H37.5072V49.4143H35.5723V43.125Z" fill="white"/>
<path d="M46.7296 48.3637H44.5295L44.2247 49.3987H42.25L44.6091 43.1094H46.7296L49.0886 49.3987H47.0609L46.7428 48.3637H46.7296ZM46.3187 47.0103L45.6295 44.7547L44.9404 47.0103H46.3187Z" fill="white"/>
<path d="M49.6992 43.125H51.5149L53.874 46.6014V43.125H55.7029V49.4143H53.874L51.5282 45.9645V49.4143H49.6992V43.125Z" fill="white"/>
<path d="M57.0156 43.125H59.8915C60.4614 43.125 60.9253 43.2046 61.2699 43.3506C61.6145 43.5098 61.906 43.7221 62.1313 44.014C62.3566 44.3059 62.5289 44.6376 62.6349 45.0224C62.741 45.4072 62.794 45.8053 62.794 46.2431C62.794 46.9198 62.7145 47.4373 62.5687 47.8088C62.4096 48.1803 62.1976 48.4855 61.9325 48.7376C61.6675 48.9897 61.3759 49.1489 61.0578 49.2418C60.6337 49.3612 60.2494 49.4143 59.9048 49.4143H57.0289V43.125H57.0156ZM58.9638 44.5447V47.9813H59.4409C59.8518 47.9813 60.1301 47.9415 60.3024 47.8486C60.4747 47.7557 60.6072 47.5965 60.7 47.371C60.7928 47.1454 60.8458 46.7871 60.8458 46.2829C60.8458 45.6195 60.7397 45.1551 60.5144 44.9163C60.3024 44.6642 59.9313 44.5447 59.4409 44.5447H58.9506H58.9638Z" fill="white"/>
<path d="M63.8008 43.125H66.3454L67.3261 46.9464L68.3068 43.125H70.8514V49.4143H69.2611V44.6244L68.0418 49.4143H66.6104L65.3912 44.6244V49.4143H63.8008V43.125Z" fill="white"/>
<path d="M75.9542 48.3637H73.7541L73.4493 49.3987H71.4746L73.8337 43.1094H75.9542L78.3132 49.3987H76.2855L75.9674 48.3637H75.9542ZM75.5566 47.0103L74.8674 44.7547L74.1782 47.0103H75.5566Z" fill="white"/>
<path d="M78.9492 43.125H81.8251C82.395 43.125 82.8589 43.2046 83.2035 43.3506C83.548 43.5098 83.8396 43.7221 84.0649 44.014C84.2902 44.3059 84.4625 44.6376 84.5685 45.0224C84.6746 45.4072 84.7276 45.8053 84.7276 46.2431C84.7276 46.9198 84.6481 47.4373 84.5023 47.8088C84.3432 48.1803 84.1312 48.4855 83.8661 48.7376C83.6011 48.9897 83.3095 49.1489 82.9914 49.2418C82.5673 49.3612 82.183 49.4143 81.8384 49.4143H78.9625V43.125H78.9492ZM80.8842 44.5447V47.9813H81.3613C81.7721 47.9813 82.0504 47.9415 82.2227 47.8486C82.395 47.7557 82.5276 47.5965 82.6203 47.371C82.7131 47.1454 82.7661 46.7871 82.7661 46.2829C82.7661 45.6195 82.6601 45.1551 82.4348 44.9163C82.2227 44.6642 81.8517 44.5447 81.3613 44.5447H80.8709H80.8842Z" fill="white"/>
<path d="M85.7344 43.1226H90.9296V44.4628H87.6693V45.4579H90.691V46.745H87.6693V47.9789H91.0224V49.3987H85.7344V43.1094V43.1226Z" fill="white"/>
<path d="M99.1726 46.837L100.869 47.3545C100.75 47.8321 100.577 48.2302 100.326 48.5486C100.074 48.8671 99.769 49.1059 99.4112 49.2784C99.0534 49.4376 98.5895 49.5172 98.0196 49.5172C97.3305 49.5172 96.7738 49.4244 96.3497 49.2253C95.9124 49.0263 95.5413 48.6813 95.2232 48.1771C94.9051 47.6729 94.7461 47.036 94.7461 46.2532C94.7461 45.2182 95.0244 44.4088 95.5678 43.8515C96.1244 43.2943 96.9064 43.0156 97.9136 43.0156C98.7088 43.0156 99.3317 43.1748 99.7823 43.4933C100.233 43.8117 100.564 44.3027 100.79 44.9661L99.0799 45.3509C99.0136 45.1651 98.9606 45.0192 98.8943 44.9263C98.7883 44.7804 98.6558 44.6609 98.4967 44.5813C98.3377 44.5017 98.1654 44.4619 97.9666 44.4619C97.5292 44.4619 97.1847 44.6344 96.9594 44.9926C96.7871 45.258 96.6943 45.6693 96.6943 46.2266C96.6943 46.9166 96.8003 47.3943 97.0124 47.6596C97.2244 47.925 97.516 48.0444 97.9003 48.0444C98.2847 48.0444 98.5497 47.9383 98.7353 47.726C98.9208 47.5137 99.0666 47.2085 99.1461 46.8237L99.1726 46.837Z" fill="white"/>
<path d="M101.572 46.268C101.572 45.2463 101.85 44.4369 102.433 43.8664C103.003 43.2958 103.798 43.0039 104.819 43.0039C105.839 43.0039 106.674 43.2825 107.231 43.8398C107.801 44.3971 108.079 45.1932 108.079 46.2016C108.079 46.9314 107.96 47.5418 107.708 48.0062C107.456 48.4706 107.098 48.8421 106.635 49.1075C106.171 49.3728 105.588 49.5055 104.885 49.5055C104.183 49.5055 103.586 49.3994 103.122 49.1738C102.659 48.9482 102.288 48.59 101.996 48.099C101.704 47.6081 101.559 46.9978 101.559 46.268H101.572ZM103.52 46.2813C103.52 46.9181 103.639 47.3693 103.878 47.6479C104.116 47.9266 104.435 48.0592 104.845 48.0592C105.256 48.0592 105.588 47.9266 105.813 47.6479C106.038 47.3693 106.157 46.8916 106.157 46.1884C106.157 45.5913 106.038 45.1667 105.8 44.8881C105.561 44.6094 105.243 44.4767 104.832 44.4767C104.421 44.4767 104.13 44.6094 103.891 44.8881C103.653 45.1667 103.533 45.6178 103.533 46.268L103.52 46.2813Z" fill="white"/>
<path d="M108.781 47.3279L110.623 47.2085C110.663 47.5137 110.743 47.7392 110.862 47.8985C111.061 48.1506 111.352 48.2833 111.723 48.2833C112.002 48.2833 112.214 48.2169 112.36 48.0842C112.505 47.9515 112.585 47.8056 112.585 47.6331C112.585 47.4606 112.519 47.3279 112.373 47.1952C112.227 47.0625 111.896 46.9431 111.379 46.837C110.531 46.6512 109.921 46.3859 109.563 46.0674C109.192 45.749 109.02 45.3509 109.02 44.86C109.02 44.5415 109.113 44.2363 109.298 43.9444C109.484 43.6525 109.762 43.427 110.146 43.2677C110.517 43.1085 111.034 43.0156 111.697 43.0156C112.505 43.0156 113.115 43.1616 113.526 43.4668C113.95 43.7587 114.202 44.2363 114.281 44.8865L112.452 44.9926C112.399 44.714 112.307 44.5017 112.148 44.3823C111.989 44.2496 111.776 44.1833 111.498 44.1833C111.273 44.1833 111.101 44.2363 110.995 44.3292C110.875 44.4221 110.822 44.5415 110.822 44.6742C110.822 44.7803 110.875 44.86 110.968 44.9396C111.061 45.0192 111.273 45.0988 111.617 45.1651C112.466 45.3509 113.075 45.5367 113.433 45.7224C113.804 45.9082 114.069 46.147 114.242 46.4124C114.401 46.691 114.493 46.9962 114.493 47.3412C114.493 47.7392 114.387 48.1108 114.162 48.4558C113.937 48.8007 113.632 49.0528 113.234 49.2253C112.837 49.3978 112.333 49.4907 111.723 49.4907C110.65 49.4907 109.921 49.2917 109.51 48.8803C109.099 48.469 108.861 47.9515 108.808 47.3147L108.781 47.3279Z" fill="white"/>
<path d="M115.435 43.125H117.98L118.96 46.9464L119.941 43.125H122.486V49.4143H120.895V44.6244L119.676 49.4143H118.232L117.012 44.6244V49.4143H115.422V43.125H115.435Z" fill="white"/>
<path d="M123.73 43.1226H128.926V44.4628H125.665V45.4579H128.687V46.745H125.665V47.9789H129.018V49.3987H123.73V43.1094V43.1226Z" fill="white"/>
<path d="M129.629 43.125H135.527V44.6774H133.552V49.4143H131.617V44.6774H129.642V43.125H129.629Z" fill="white"/>
<path d="M136.48 43.125H138.429V49.4143H136.48V43.125Z" fill="white"/>
<path d="M143.995 46.837L145.692 47.3545C145.572 47.8321 145.4 48.2302 145.148 48.5486C144.897 48.8671 144.605 49.1059 144.234 49.2784C143.863 49.4376 143.412 49.5172 142.842 49.5172C142.166 49.5172 141.597 49.4244 141.172 49.2253C140.748 49.0263 140.364 48.6813 140.059 48.1771C139.741 47.6729 139.582 47.036 139.582 46.2532C139.582 45.2182 139.86 44.4088 140.404 43.8515C140.96 43.2943 141.742 43.0156 142.75 43.0156C143.545 43.0156 144.168 43.1748 144.618 43.4933C145.069 43.8117 145.4 44.3027 145.625 44.9661L143.916 45.3509C143.85 45.1651 143.797 45.0192 143.73 44.9263C143.624 44.7804 143.492 44.6609 143.333 44.5813C143.174 44.5017 143.001 44.4619 142.803 44.4619C142.365 44.4619 142.021 44.6344 141.795 44.9926C141.623 45.258 141.53 45.6693 141.53 46.2266C141.53 46.9166 141.636 47.3943 141.848 47.6596C142.06 47.925 142.352 48.0444 142.736 48.0444C143.121 48.0444 143.386 47.9383 143.571 47.726C143.757 47.5137 143.903 47.2085 143.982 46.8237L143.995 46.837Z" fill="white"/>
<path d="M146.301 47.3279L148.143 47.2085C148.183 47.5137 148.262 47.7392 148.382 47.8985C148.58 48.1506 148.872 48.2833 149.243 48.2833C149.521 48.2833 149.733 48.2169 149.879 48.0842C150.025 47.9515 150.104 47.8056 150.104 47.6331C150.104 47.4606 150.038 47.3279 149.892 47.1952C149.747 47.0625 149.415 46.9431 148.898 46.837C148.05 46.6512 147.441 46.3859 147.083 46.0674C146.712 45.749 146.539 45.3509 146.539 44.86C146.539 44.5415 146.632 44.2363 146.818 43.9444C147.003 43.6525 147.282 43.427 147.666 43.2677C148.037 43.1085 148.554 43.0156 149.203 43.0156C150.012 43.0156 150.621 43.1616 151.032 43.4668C151.456 43.7587 151.708 44.2363 151.788 44.8865L149.959 44.9926C149.906 44.714 149.813 44.5017 149.654 44.3823C149.495 44.2496 149.283 44.1833 149.004 44.1833C148.779 44.1833 148.607 44.2363 148.501 44.3292C148.382 44.4221 148.329 44.5415 148.329 44.6742C148.329 44.7803 148.382 44.86 148.474 44.9396C148.567 45.0192 148.779 45.0988 149.124 45.1651C149.972 45.3509 150.582 45.5367 150.939 45.7224C151.31 45.9082 151.576 46.147 151.735 46.4124C151.907 46.691 151.986 46.9962 151.986 47.3412C151.986 47.7392 151.88 48.1108 151.655 48.4558C151.43 48.8007 151.125 49.0528 150.727 49.2253C150.33 49.3978 149.826 49.4907 149.216 49.4907C148.143 49.4907 147.414 49.2917 147.003 48.8803C146.592 48.469 146.354 47.9515 146.301 47.3147V47.3279Z" fill="white"/>
</svg>
